<svg xmlns="http://www.w3.org/2000/svg" xmlns:xlink="http://www.w3.org/1999/xlink" width="500" height="600"><path fill-rule="evenodd" clip-rule="evenodd" fill="#33569A" d="M284.517 134.59c-6.577-.303-12.878-2.098-17.498-6.797-5.117-5.195-6.727-12.462-6.727-19.91 0-7.445 2.521-13.835 7.568-19.175 3.927-4.153 8.589-6.684 13.98-7.606-5.83-17.287-17.337-33.721-38.701-39.79-16.287-5.79-35.656-3.708-66.299 8.019-53.391 26.689-90.587 116.368-79.116 228.484 1.556 15.217 4.643 31.028 8.047 46.961-1.379-111.386 18.579-172.396 42.485-205.103 30.768-41.719 59.081-37.725 74.66-33.299 30.049 8.537 26.572 49.569 6.12 77.315-20.453 27.746-44.354 46.605-84.389 42.387 92.28 53.801 82.652 142.243 74.914 169.48-12.405 43.665-63.146 83.429-125.011 65.854-65.348-19.613-84.28-96.648-12.93-196.621-30.266 20.695-56.574 55.037-67.128 92.783-16.648 59.539 5.389 131.912 86.212 155.921 40.832 11.6 91.863-5.191 121.715-35.41 17.054-17.264 27.697-38.768 31.495-60.182 2.497-14.748 12.544-115.606-61.211-178.396 71.148-20.513 86.702-65.205 91.814-84.915z"/><defs><path id="a" d="M432.689 444.424c33.061 2.018 55.635-25.045 55.635-25.045s-5.971-16.965-26.914-6.598c-20.65 8.594-32.565 10.561-44.359-.711-7.557-7.221-10.568-13.154-11.725-24.525 0 0 20.117 3.234 40.1-.338 21.119-3.771 42.166-13.418 42.166-38.951 0-7.666-3.061-18.6-11.074-27.176-8.617-9.227-26.893-16.502-42.061-16.502-18.371 0-65.818 9.941-65.818 72.02 0 6.947.961 31.267 21.289 50.105 9.494 9.354 23.15 16.533 42.761 17.721zm.512-115.277c30.52-.363 21.84 23.978 20.016 26.762-13.971 16.57-41.977 8.607-49.482 7.898.449-2.914 1.075-31.996 29.466-34.66z"/></defs><use xlink:href="#a" overflow="visible" fill="#010101"/><path fill="#010101" d="M331.691 420.178c-20.65 8.594-32.564 10.561-44.359-.713-7.557-7.221-10.568-13.152-11.723-24.523 0 0 20.115 3.232 40.1-.338 21.117-3.773 42.164-13.418 42.164-38.953 0-7.664-3.06-18.598-11.074-27.176-8.617-9.225-26.891-16.5-42.059-16.5-10.257 0-29.577 3.104-44.643 16.646 6.132 34.048 2.996 62.039 1.73 69.278-1.719 9.387-4.797 18.79-9.193 27.847a65.013 65.013 0 0 0 7.575 8.354c9.496 9.353 23.15 16.533 42.762 17.721 33.061 2.016 55.635-25.045 55.635-25.045s-5.971-16.966-26.915-6.598zm-28.207-83.637c30.518-.363 21.838 23.979 20.016 26.762-13.973 16.572-41.979 8.609-49.482 7.9.447-2.914 1.074-31.996 29.466-34.662z"/><defs><path id="b" d="M390.33 291.547c8.512 0 13.705-2.971 18.273-6.219 6.147-4.372 11.443-12.28 8.193-24.079-8.066 2.913-36.107 14.564-45.994-25.193-2.689-28.239-2.689-55.277-2.689-55.277l11.199-.672c20.891 0 28.102-19.406 25.637-30.163-8.289.896-38.445 2.016-38.445 2.016s-3.586-41.265-2.018-46.644c-19.043 1.704-34.818 6.029-34.818 34.368l4.705 86.034c0 31.072 23.33 65.829 55.957 65.829z"/></defs><use xlink:href="#b" overflow="visible" fill="#010101"/><defs><path id="c" d="M307.055 295.001c22.141 0 26.996-9.92 26.522-29.315-9.133 5.445-14.727 5.336-18.211.069-3.055-4.619-3.143-13.206-3.916-25.492-.484-7.726-1.381-16.915-1.586-27.501-1.119-31.375-2.016-54.223-2.016-54.223-9.355 1.023-20.793 1.264-28.402 10.798-6.092 7.635-6.34 21.044-5.443 38.973.896 17.929 2.687 48.617 2.687 48.617.673 30.404 19.306 38.61 30.365 38.074 0 0-19.268 0 0 0z"/></defs><use xlink:href="#c" overflow="visible" fill="#010101"/><path d="M272.605 121.967c3.633 3.694 8.727 4.867 13.932 4.867 5.164 0 9.496-1.845 13.004-5.539 3.506-3.691 5.26-8.182 5.26-13.473 0-5.289-1.082-9.829-4.588-13.623-3.508-3.792-8.512-5.689-13.676-5.689-5.305 0-9.748 1.897-13.334 5.689-3.586 3.794-5.377 8.334-5.377 13.623 0 5.291 1.144 10.454 4.779 14.145zM33.295 533.168c-.963-.854-1.966-1.431-3.009-1.725-1.043-.294-2.181-.441-3.411-.441-2.836 0-4.855.682-6.059 2.046s-1.806 3.599-1.806 6.701v5.296h12.76v2.648c0 1.017-.415 1.913-1.244 2.688-.83.775-2.02 1.163-3.571 1.163h-8.024v30.334h-2.759c-1.624 0-2.787-.481-3.489-1.444-.704-.963-1.055-2.22-1.055-3.771v-37.717c0-1.872.323-3.704.973-5.497a14.506 14.506 0 0 1 2.84-4.775 14.027 14.027 0 0 1 4.482-3.33c1.746-.828 3.742-1.243 5.989-1.243 1.284 0 2.407.16 3.371.481.963.32 1.778.749 2.447 1.283.668.536 1.164 1.111 1.485 1.726.321.616.481 1.191.481 1.726v3.852h-.401zm43.894 26.402c0 3.639-.455 6.875-1.364 9.71-.91 2.836-2.207 5.256-3.892 7.262a16.527 16.527 0 0 1-6.099 4.574c-2.381 1.044-5.016 1.565-7.904 1.565-2.836 0-5.471-.521-7.905-1.565a18.367 18.367 0 0 1-6.299-4.413c-1.766-1.898-3.157-4.159-4.173-6.781-1.017-2.62-1.525-5.537-1.525-8.747 0-3.531.468-6.713 1.404-9.55.936-2.835 2.273-5.242 4.013-7.222a17.708 17.708 0 0 1 6.259-4.574c2.434-1.07 5.176-1.605 8.226-1.605 2.835 0 5.443.51 7.824 1.525 2.38 1.017 4.414 2.461 6.099 4.333 1.685 1.873 2.996 4.12 3.932 6.741.936 2.621 1.404 5.537 1.404 8.747zm-7.382 1.685c0-5.349-1.097-9.375-3.29-12.077-2.194-2.701-5.404-4.053-9.63-4.053-3.478 0-6.259 1.298-8.346 3.893s-3.13 6.139-3.13 10.633c0 4.976 1.15 8.907 3.451 11.796 2.3 2.89 5.563 4.334 9.791 4.334 1.818 0 3.423-.361 4.815-1.084a9.95 9.95 0 0 0 3.491-3.009c.935-1.284 1.645-2.821 2.126-4.614.481-1.793.722-3.732.722-5.819zm39.723-13.321c-.696-.588-1.605-1.096-2.729-1.524-1.124-.428-2.407-.642-3.852-.642-1.444 0-2.662.201-3.651.603a5.219 5.219 0 0 0-2.407 1.972c-.616.911-1.071 2.131-1.364 3.658-.294 1.528-.441 3.446-.441 5.751v24.128h-3.164c-1.353 0-2.395-.468-3.125-1.404-.73-.936-1.095-2.099-1.095-3.491v-19.74c0-5.991 1.324-10.525 3.972-13.603 2.648-3.076 6.059-4.614 10.232-4.614 2.941 0 5.016.543 6.219 1.626 1.204 1.084 1.806 2.34 1.806 3.767v3.515h-.401zm32.659-8.908h14.766v2.379c0 1.322-.455 2.381-1.364 3.173-.911.793-2.327 1.189-4.253 1.189h-9.068v21.322c0 3.058.588 5.271 1.766 6.639 1.176 1.368 2.941 2.052 5.296 2.052 1.336 0 2.608-.08 3.812-.241 1.204-.16 2.179-.481 2.929-.963h.401v2.568c0 1.819-.67 3.197-2.006 4.133-1.338.936-3.264 1.404-5.778 1.404-4.821 0-8.327-1.23-10.518-3.691-2.19-2.46-3.285-6.18-3.285-11.154v-27.927c0-2.621.622-4.842 1.866-6.661.541-.748 1.298-1.444 2.272-2.086.973-.643 1.73-.963 2.272-.963h.893v8.827zm56.232 42.853c-1.947 0-3.34-.388-4.178-1.164-.838-.774-1.257-1.966-1.257-3.57v-20.303c0-4.28-.88-7.315-2.638-9.108-1.759-1.792-4.291-2.688-7.595-2.688-1.227 0-2.478.255-3.757.763a10.086 10.086 0 0 0-3.438 2.287c-1.013 1.017-1.838 2.287-2.478 3.812-.64 1.524-.959 3.304-.959 5.337v24.636h-2.086c-1.819 0-3.129-.388-3.932-1.164-.802-.774-1.204-1.966-1.204-3.57v-53.044h2.167c1.658 0 2.942.4 3.852 1.203.909.803 1.364 2.221 1.364 4.253v16.13c1.551-2.889 3.371-4.867 5.457-5.938s4.119-1.605 6.099-1.605c5.082 0 9.108 1.472 12.078 4.414 2.969 2.942 4.454 7.623 4.454 14.043v25.278h-1.949zm48.25-28.81c0 1.874-.255 3.491-.763 4.855-.509 1.364-1.444 2.476-2.809 3.33-1.364.856-3.224 1.484-5.577 1.886-2.355.401-5.376.603-9.068.603h-10.593c.374 3.585 1.751 6.514 4.133 8.787 2.379 2.274 5.577 3.41 9.589 3.41 3.316 0 6.005-.441 8.065-1.324 2.059-.883 3.704-1.912 4.936-3.089h.401v3.209c0 2.247-1.191 4.133-3.571 5.658-2.381 1.524-6.006 2.287-10.874 2.287-2.943 0-5.645-.536-8.105-1.605-2.461-1.069-4.588-2.554-6.379-4.453-1.793-1.898-3.184-4.159-4.173-6.781-.991-2.621-1.485-5.483-1.485-8.587 0-3.477.508-6.633 1.525-9.469 1.016-2.835 2.42-5.27 4.213-7.303a18.373 18.373 0 0 1 6.38-4.694c2.46-1.097 5.108-1.646 7.944-1.646 2.086 0 4.105.375 6.059 1.123a16.71 16.71 0 0 1 5.176 3.13 15.739 15.739 0 0 1 3.611 4.735c.91 1.82 1.365 3.8 1.365 5.938zm-7.062.348a9.098 9.098 0 0 0-.602-3.309 7.587 7.587 0 0 0-1.846-2.753c-.83-.797-1.873-1.434-3.129-1.913-1.258-.479-2.716-.719-4.374-.719-1.766 0-3.358.333-4.775.997-1.418.665-2.636 1.542-3.651 2.632a12.828 12.828 0 0 0-2.407 3.669c-.589 1.356-.911 2.726-.963 4.107l-.081 1.756 9.71-.16c2.568-.053 4.655-.16 6.26-.319s2.835-.398 3.691-.718c.855-.318 1.431-.745 1.725-1.276.294-.532.442-1.196.442-1.994zm57.215-20.249c-.963-.854-1.966-1.431-3.01-1.725-1.043-.294-2.18-.441-3.41-.441-2.836 0-4.855.682-6.059 2.046-1.204 1.364-1.806 3.599-1.806 6.701v5.296h12.76v2.648c0 1.017-.415 1.913-1.244 2.688-.83.775-2.021 1.163-3.571 1.163h-8.024v30.334h-2.759c-1.624 0-2.787-.481-3.489-1.444-.704-.963-1.055-2.22-1.055-3.771v-37.717c0-1.872.323-3.704.973-5.497a14.524 14.524 0 0 1 2.84-4.775 14.02 14.02 0 0 1 4.483-3.33c1.745-.828 3.741-1.243 5.988-1.243 1.284 0 2.407.16 3.37.481.963.32 1.778.749 2.448 1.283.668.536 1.163 1.111 1.484 1.726.32.616.481 1.191.481 1.726v3.852h-.4zm41.407 30.254c0 6.313-1.552 11.102-4.654 14.364-3.104 3.264-7.543 4.896-13.321 4.896-2.622 0-5.016-.441-7.182-1.324-2.167-.883-4.013-2.18-5.537-3.893-1.525-1.711-2.702-3.798-3.531-6.259-.83-2.46-1.244-5.269-1.244-8.426v-23.834h2.272c3.406 0 5.11 1.899 5.11 5.697v17.735c0 4.387.982 7.718 2.947 9.99 1.963 2.274 4.513 3.411 7.645 3.411 3.344 0 5.865-1.016 7.564-3.05 1.698-2.032 2.548-5.377 2.548-10.031v-23.753h2.029c3.568 0 5.354 1.899 5.354 5.697v18.78zm19.339-24.396h14.766v2.379c0 1.322-.455 2.381-1.364 3.173-.91.793-2.327 1.189-4.253 1.189h-9.068v21.322c0 3.058.588 5.271 1.766 6.639 1.176 1.368 2.941 2.052 5.296 2.052 1.337 0 2.608-.08 3.813-.241 1.203-.16 2.179-.481 2.929-.963h.401v2.568c0 1.819-.67 3.197-2.007 4.133-1.338.936-3.264 1.404-5.777 1.404-4.821 0-8.327-1.23-10.518-3.691-2.19-2.46-3.285-6.18-3.285-11.154v-27.927c0-2.621.622-4.842 1.865-6.661.541-.748 1.298-1.444 2.272-2.086.973-.643 1.73-.963 2.272-.963h.893v8.827zm57.377 24.396c0 6.313-1.552 11.102-4.654 14.364-3.104 3.264-7.543 4.896-13.321 4.896-2.622 0-5.016-.441-7.182-1.324-2.167-.883-4.013-2.18-5.537-3.893-1.525-1.711-2.702-3.798-3.531-6.259-.83-2.46-1.244-5.269-1.244-8.426v-23.834h2.272c3.406 0 5.11 1.899 5.11 5.697v17.735c0 4.387.982 7.718 2.947 9.99 1.963 2.274 4.513 3.411 7.645 3.411 3.344 0 5.865-1.016 7.564-3.05 1.698-2.032 2.548-5.377 2.548-10.031v-23.753h2.029c3.568 0 5.354 1.899 5.354 5.697v18.78zm33.462-15.488c-.695-.588-1.604-1.096-2.728-1.524-1.124-.428-2.408-.642-3.853-.642s-2.662.201-3.651.603a5.219 5.219 0 0 0-2.407 1.972c-.615.911-1.07 2.131-1.364 3.658-.295 1.528-.441 3.446-.441 5.751v24.128h-3.163c-1.354 0-2.396-.468-3.125-1.404-.729-.936-1.095-2.099-1.095-3.491v-19.74c0-5.991 1.324-10.525 3.973-13.603 2.647-3.076 6.059-4.614 10.231-4.614 2.941 0 5.016.543 6.219 1.626 1.204 1.084 1.806 2.34 1.806 3.767v3.515h-.402zm41.969 5.135c0 1.874-.254 3.491-.762 4.855-.51 1.364-1.444 2.476-2.809 3.33-1.364.856-3.225 1.484-5.578 1.886-2.354.401-5.376.603-9.067.603h-10.593c.373 3.585 1.751 6.514 4.133 8.787 2.38 2.274 5.577 3.41 9.59 3.41 3.316 0 6.005-.441 8.064-1.324s3.704-1.912 4.936-3.089h.401v3.209c0 2.247-1.191 4.133-3.571 5.658-2.381 1.524-6.006 2.287-10.874 2.287-2.942 0-5.645-.536-8.104-1.605-2.462-1.069-4.588-2.554-6.38-4.453-1.793-1.898-3.184-4.159-4.173-6.781-.991-2.621-1.484-5.483-1.484-8.587 0-3.477.508-6.633 1.524-9.469 1.016-2.835 2.42-5.27 4.213-7.303a18.373 18.373 0 0 1 6.38-4.694c2.46-1.097 5.108-1.646 7.944-1.646 2.087 0 4.105.375 6.059 1.123 1.952.75 3.678 1.794 5.177 3.13a15.736 15.736 0 0 1 3.61 4.735c.909 1.82 1.364 3.8 1.364 5.938zm-7.062.348c0-1.169-.2-2.271-.602-3.309s-1.018-1.955-1.846-2.753c-.83-.797-1.874-1.434-3.13-1.913-1.258-.479-2.716-.719-4.374-.719-1.765 0-3.357.333-4.774.997-1.418.665-2.636 1.542-3.651 2.632a12.828 12.828 0 0 0-2.407 3.669c-.59 1.356-.91 2.726-.963 4.107l-.08 1.756 9.71-.16c2.567-.053 4.654-.16 6.259-.319 1.605-.159 2.835-.398 3.691-.718.855-.318 1.431-.745 1.726-1.276.293-.532.441-1.196.441-1.994z"/></svg>